<mxfile host="app.diagrams.net" modified="2020-09-08T07:16:26.202Z" agent="5.0 (Windows NT 10.0; Win64; x64) AppleWebKit/537.36 (KHTML, like Gecko) Chrome/85.0.4183.83 Safari/537.36" etag="4BXcLU6bJsmNfjA-xisd" version="13.6.6" type="github">
  <diagram id="QoUyzWgnBJ4p2HtTW-oU" name="Page-1">
    <mxGraphModel dx="1038" dy="548" grid="1" gridSize="10" guides="1" tooltips="1" connect="1" arrows="1" fold="1" page="1" pageScale="1" pageWidth="1100" pageHeight="850" math="0" shadow="0" extFonts="Old Standard TT^https://fonts.googleapis.com/css?family=Old+Standard+TT">
      <root>
        <mxCell id="0" />
        <mxCell id="1" parent="0" />
        <mxCell id="mUP7ldSw4wLbzRb6OegH-2" value="" style="rounded=1;whiteSpace=wrap;html=1;strokeColor=#ae4132;fillColor=#FAEBED;" vertex="1" parent="1">
          <mxGeometry x="380" y="50" width="120" height="60" as="geometry" />
        </mxCell>
        <mxCell id="mUP7ldSw4wLbzRb6OegH-3" value="" style="rounded=1;whiteSpace=wrap;html=1;strokeColor=#ae4132;fillColor=#FAEBED;" vertex="1" parent="1">
          <mxGeometry x="380" y="150" width="120" height="60" as="geometry" />
        </mxCell>
        <mxCell id="mUP7ldSw4wLbzRb6OegH-4" value="" style="rounded=1;whiteSpace=wrap;html=1;strokeColor=#ae4132;fillColor=#FAEBED;" vertex="1" parent="1">
          <mxGeometry x="220" y="350" width="120" height="60" as="geometry" />
        </mxCell>
        <mxCell id="mUP7ldSw4wLbzRb6OegH-5" value="" style="rounded=1;whiteSpace=wrap;html=1;fillColor=#f5f5f5;strokeColor=#666666;fontColor=#333333;" vertex="1" parent="1">
          <mxGeometry x="380" y="250" width="120" height="60" as="geometry" />
        </mxCell>
        <mxCell id="mUP7ldSw4wLbzRb6OegH-6" value="" style="rounded=1;whiteSpace=wrap;html=1;fillColor=#f5f5f5;strokeColor=#666666;fontColor=#333333;" vertex="1" parent="1">
          <mxGeometry x="540" y="250" width="120" height="60" as="geometry" />
        </mxCell>
        <mxCell id="mUP7ldSw4wLbzRb6OegH-7" value="" style="rounded=1;whiteSpace=wrap;html=1;fillColor=#f5f5f5;strokeColor=#666666;fontColor=#333333;" vertex="1" parent="1">
          <mxGeometry x="700" y="250" width="120" height="60" as="geometry" />
        </mxCell>
        <mxCell id="mUP7ldSw4wLbzRb6OegH-10" value="" style="rounded=1;whiteSpace=wrap;html=1;strokeColor=#ae4132;fillColor=#FAEBED;" vertex="1" parent="1">
          <mxGeometry x="220" y="450" width="120" height="60" as="geometry" />
        </mxCell>
        <mxCell id="mUP7ldSw4wLbzRb6OegH-11" value="" style="rounded=1;whiteSpace=wrap;html=1;strokeColor=#ae4132;fillColor=#FAEBED;" vertex="1" parent="1">
          <mxGeometry x="380" y="350" width="120" height="60" as="geometry" />
        </mxCell>
        <mxCell id="mUP7ldSw4wLbzRb6OegH-12" value="" style="rounded=1;whiteSpace=wrap;html=1;strokeColor=#ae4132;fillColor=#FAEBED;" vertex="1" parent="1">
          <mxGeometry x="540" y="350" width="120" height="60" as="geometry" />
        </mxCell>
        <mxCell id="mUP7ldSw4wLbzRb6OegH-13" value="" style="rounded=1;whiteSpace=wrap;html=1;strokeColor=#ae4132;fillColor=#FAEBED;" vertex="1" parent="1">
          <mxGeometry x="700" y="350" width="120" height="60" as="geometry" />
        </mxCell>
        <mxCell id="mUP7ldSw4wLbzRb6OegH-14" value="" style="rounded=1;whiteSpace=wrap;html=1;strokeColor=#ae4132;fillColor=#FAEBED;" vertex="1" parent="1">
          <mxGeometry x="80" y="450" width="120" height="60" as="geometry" />
        </mxCell>
        <mxCell id="mUP7ldSw4wLbzRb6OegH-15" value="" style="endArrow=classic;html=1;entryX=0.5;entryY=0;entryDx=0;entryDy=0;exitX=0.5;exitY=1;exitDx=0;exitDy=0;" edge="1" parent="1" source="mUP7ldSw4wLbzRb6OegH-2" target="mUP7ldSw4wLbzRb6OegH-3">
          <mxGeometry width="50" height="50" relative="1" as="geometry">
            <mxPoint x="280" y="170" as="sourcePoint" />
            <mxPoint x="330" y="120" as="targetPoint" />
          </mxGeometry>
        </mxCell>
        <mxCell id="mUP7ldSw4wLbzRb6OegH-16" value="" style="endArrow=classic;html=1;exitX=0.5;exitY=1;exitDx=0;exitDy=0;entryX=0.5;entryY=0;entryDx=0;entryDy=0;" edge="1" parent="1" source="mUP7ldSw4wLbzRb6OegH-3" target="mUP7ldSw4wLbzRb6OegH-40">
          <mxGeometry width="50" height="50" relative="1" as="geometry">
            <mxPoint x="250" y="190" as="sourcePoint" />
            <mxPoint x="280" y="230" as="targetPoint" />
            <Array as="points">
              <mxPoint x="440" y="220" />
              <mxPoint x="280" y="220" />
            </Array>
          </mxGeometry>
        </mxCell>
        <mxCell id="mUP7ldSw4wLbzRb6OegH-19" value="" style="endArrow=classic;html=1;exitX=0.5;exitY=1;exitDx=0;exitDy=0;entryX=0.5;entryY=0;entryDx=0;entryDy=0;" edge="1" parent="1" source="mUP7ldSw4wLbzRb6OegH-3" target="mUP7ldSw4wLbzRb6OegH-5">
          <mxGeometry width="50" height="50" relative="1" as="geometry">
            <mxPoint x="510" y="220" as="sourcePoint" />
            <mxPoint x="560" y="170" as="targetPoint" />
          </mxGeometry>
        </mxCell>
        <mxCell id="mUP7ldSw4wLbzRb6OegH-20" value="" style="endArrow=classic;html=1;exitX=0.5;exitY=1;exitDx=0;exitDy=0;entryX=0.5;entryY=0;entryDx=0;entryDy=0;" edge="1" parent="1" source="mUP7ldSw4wLbzRb6OegH-3" target="mUP7ldSw4wLbzRb6OegH-6">
          <mxGeometry width="50" height="50" relative="1" as="geometry">
            <mxPoint x="590" y="180" as="sourcePoint" />
            <mxPoint x="640" y="130" as="targetPoint" />
            <Array as="points">
              <mxPoint x="440" y="220" />
              <mxPoint x="600" y="220" />
            </Array>
          </mxGeometry>
        </mxCell>
        <mxCell id="mUP7ldSw4wLbzRb6OegH-21" value="" style="endArrow=classic;html=1;entryX=0.5;entryY=0;entryDx=0;entryDy=0;exitX=0.5;exitY=1;exitDx=0;exitDy=0;" edge="1" parent="1" source="mUP7ldSw4wLbzRb6OegH-3" target="mUP7ldSw4wLbzRb6OegH-7">
          <mxGeometry width="50" height="50" relative="1" as="geometry">
            <mxPoint x="550" y="210" as="sourcePoint" />
            <mxPoint x="600" y="160" as="targetPoint" />
            <Array as="points">
              <mxPoint x="440" y="220" />
              <mxPoint x="760" y="220" />
            </Array>
          </mxGeometry>
        </mxCell>
        <mxCell id="mUP7ldSw4wLbzRb6OegH-22" value="" style="endArrow=classic;html=1;exitX=0.5;exitY=1;exitDx=0;exitDy=0;" edge="1" parent="1" source="mUP7ldSw4wLbzRb6OegH-5" target="mUP7ldSw4wLbzRb6OegH-11">
          <mxGeometry width="50" height="50" relative="1" as="geometry">
            <mxPoint x="330" y="360" as="sourcePoint" />
            <mxPoint x="380" y="310" as="targetPoint" />
          </mxGeometry>
        </mxCell>
        <mxCell id="mUP7ldSw4wLbzRb6OegH-24" value="" style="endArrow=classic;html=1;entryX=0.504;entryY=-0.033;entryDx=0;entryDy=0;entryPerimeter=0;" edge="1" parent="1" source="mUP7ldSw4wLbzRb6OegH-6" target="mUP7ldSw4wLbzRb6OegH-12">
          <mxGeometry width="50" height="50" relative="1" as="geometry">
            <mxPoint x="550" y="370" as="sourcePoint" />
            <mxPoint x="600" y="320" as="targetPoint" />
          </mxGeometry>
        </mxCell>
        <mxCell id="mUP7ldSw4wLbzRb6OegH-25" value="" style="endArrow=classic;html=1;exitX=0.5;exitY=1;exitDx=0;exitDy=0;" edge="1" parent="1" source="mUP7ldSw4wLbzRb6OegH-7" target="mUP7ldSw4wLbzRb6OegH-13">
          <mxGeometry width="50" height="50" relative="1" as="geometry">
            <mxPoint x="660" y="380" as="sourcePoint" />
            <mxPoint x="710" y="330" as="targetPoint" />
          </mxGeometry>
        </mxCell>
        <mxCell id="mUP7ldSw4wLbzRb6OegH-26" value="" style="endArrow=classic;html=1;exitX=0.5;exitY=1;exitDx=0;exitDy=0;" edge="1" parent="1" source="mUP7ldSw4wLbzRb6OegH-4" target="mUP7ldSw4wLbzRb6OegH-10">
          <mxGeometry width="50" height="50" relative="1" as="geometry">
            <mxPoint x="170" y="310" as="sourcePoint" />
            <mxPoint x="220" y="260" as="targetPoint" />
          </mxGeometry>
        </mxCell>
        <mxCell id="mUP7ldSw4wLbzRb6OegH-27" value="" style="endArrow=classic;html=1;exitX=0.5;exitY=1;exitDx=0;exitDy=0;entryX=0.5;entryY=0;entryDx=0;entryDy=0;" edge="1" parent="1" source="mUP7ldSw4wLbzRb6OegH-4" target="mUP7ldSw4wLbzRb6OegH-14">
          <mxGeometry width="50" height="50" relative="1" as="geometry">
            <mxPoint x="60" y="390" as="sourcePoint" />
            <mxPoint x="110" y="340" as="targetPoint" />
            <Array as="points">
              <mxPoint x="280" y="420" />
              <mxPoint x="140" y="420" />
            </Array>
          </mxGeometry>
        </mxCell>
        <mxCell id="mUP7ldSw4wLbzRb6OegH-28" style="edgeStyle=orthogonalEdgeStyle;rounded=0;orthogonalLoop=1;jettySize=auto;html=1;exitX=0.5;exitY=1;exitDx=0;exitDy=0;" edge="1" parent="1">
          <mxGeometry relative="1" as="geometry">
            <mxPoint x="40" y="290" as="sourcePoint" />
            <mxPoint x="40" y="290" as="targetPoint" />
          </mxGeometry>
        </mxCell>
        <mxCell id="mUP7ldSw4wLbzRb6OegH-29" value="&lt;font face=&quot;Old Standard TT&quot; style=&quot;font-size: 15px&quot;&gt;Authenticate&lt;/font&gt;" style="text;html=1;strokeColor=none;fillColor=none;align=center;verticalAlign=middle;whiteSpace=wrap;rounded=0;fontStyle=1;" vertex="1" parent="1">
          <mxGeometry x="395" y="70" width="90" height="20" as="geometry" />
        </mxCell>
        <mxCell id="mUP7ldSw4wLbzRb6OegH-30" value="&lt;font face=&quot;Old Standard TT&quot; style=&quot;font-size: 15px&quot;&gt;Landing Page&lt;/font&gt;" style="text;html=1;strokeColor=none;fillColor=none;align=center;verticalAlign=middle;whiteSpace=wrap;rounded=0;fontStyle=1;" vertex="1" parent="1">
          <mxGeometry x="387.5" y="170" width="105" height="20" as="geometry" />
        </mxCell>
        <mxCell id="mUP7ldSw4wLbzRb6OegH-31" value="&lt;font face=&quot;Old Standard TT&quot; style=&quot;font-size: 15px&quot;&gt;Audit &lt;br&gt;Landing Page&lt;/font&gt;" style="text;html=1;strokeColor=none;fillColor=none;align=center;verticalAlign=middle;whiteSpace=wrap;rounded=0;fontStyle=1;" vertex="1" parent="1">
          <mxGeometry x="227.5" y="370" width="105" height="20" as="geometry" />
        </mxCell>
        <mxCell id="mUP7ldSw4wLbzRb6OegH-32" value="&lt;font face=&quot;Old Standard TT&quot; style=&quot;font-size: 15px&quot;&gt;Automate&lt;/font&gt;" style="text;html=1;strokeColor=none;fillColor=none;align=center;verticalAlign=middle;whiteSpace=wrap;rounded=0;fontStyle=1;" vertex="1" parent="1">
          <mxGeometry x="387.5" y="270" width="105" height="20" as="geometry" />
        </mxCell>
        <mxCell id="mUP7ldSw4wLbzRb6OegH-33" value="&lt;font face=&quot;Old Standard TT&quot;&gt;&lt;span style=&quot;font-size: 15px&quot;&gt;Users&lt;/span&gt;&lt;/font&gt;" style="text;html=1;strokeColor=none;fillColor=none;align=center;verticalAlign=middle;whiteSpace=wrap;rounded=0;fontStyle=1;" vertex="1" parent="1">
          <mxGeometry x="547.5" y="270" width="105" height="20" as="geometry" />
        </mxCell>
        <mxCell id="mUP7ldSw4wLbzRb6OegH-34" value="&lt;font face=&quot;Old Standard TT&quot;&gt;&lt;span style=&quot;font-size: 15px&quot;&gt;Configuration&lt;/span&gt;&lt;/font&gt;" style="text;html=1;strokeColor=none;fillColor=none;align=center;verticalAlign=middle;whiteSpace=wrap;rounded=0;fontStyle=1;" vertex="1" parent="1">
          <mxGeometry x="707.5" y="270" width="105" height="20" as="geometry" />
        </mxCell>
        <mxCell id="mUP7ldSw4wLbzRb6OegH-35" value="&lt;font face=&quot;Old Standard TT&quot; style=&quot;font-size: 15px&quot;&gt;Schedule Task&lt;/font&gt;" style="text;html=1;strokeColor=none;fillColor=none;align=center;verticalAlign=middle;whiteSpace=wrap;rounded=0;fontStyle=1;" vertex="1" parent="1">
          <mxGeometry x="87.5" y="470" width="105" height="20" as="geometry" />
        </mxCell>
        <mxCell id="mUP7ldSw4wLbzRb6OegH-36" value="&lt;font face=&quot;Old Standard TT&quot;&gt;&lt;span style=&quot;font-size: 15px&quot;&gt;Run Script&lt;/span&gt;&lt;/font&gt;" style="text;html=1;strokeColor=none;fillColor=none;align=center;verticalAlign=middle;whiteSpace=wrap;rounded=0;fontStyle=1;" vertex="1" parent="1">
          <mxGeometry x="227.5" y="470" width="105" height="20" as="geometry" />
        </mxCell>
        <mxCell id="mUP7ldSw4wLbzRb6OegH-37" value="&lt;font face=&quot;Old Standard TT&quot; style=&quot;font-size: 15px&quot;&gt;Automate Lading Page&lt;/font&gt;" style="text;html=1;strokeColor=none;fillColor=none;align=center;verticalAlign=middle;whiteSpace=wrap;rounded=0;fontStyle=1;" vertex="1" parent="1">
          <mxGeometry x="387.5" y="365" width="105" height="30" as="geometry" />
        </mxCell>
        <mxCell id="mUP7ldSw4wLbzRb6OegH-38" value="&lt;font face=&quot;Old Standard TT&quot; style=&quot;font-size: 15px&quot;&gt;User Management&lt;/font&gt;" style="text;html=1;strokeColor=none;fillColor=none;align=center;verticalAlign=middle;whiteSpace=wrap;rounded=0;fontStyle=1;" vertex="1" parent="1">
          <mxGeometry x="547.5" y="370" width="105" height="20" as="geometry" />
        </mxCell>
        <mxCell id="mUP7ldSw4wLbzRb6OegH-39" value="&lt;font face=&quot;Old Standard TT&quot; style=&quot;font-size: 15px&quot;&gt;Devices&lt;/font&gt;" style="text;html=1;strokeColor=none;fillColor=none;align=center;verticalAlign=middle;whiteSpace=wrap;rounded=0;fontStyle=1;" vertex="1" parent="1">
          <mxGeometry x="707.5" y="370" width="105" height="20" as="geometry" />
        </mxCell>
        <mxCell id="mUP7ldSw4wLbzRb6OegH-40" value="" style="rounded=1;whiteSpace=wrap;html=1;fillColor=#f5f5f5;strokeColor=#666666;fontColor=#333333;" vertex="1" parent="1">
          <mxGeometry x="220" y="250" width="120" height="60" as="geometry" />
        </mxCell>
        <mxCell id="mUP7ldSw4wLbzRb6OegH-41" value="&lt;font face=&quot;Old Standard TT&quot; style=&quot;font-size: 15px&quot;&gt;Audit&lt;/font&gt;" style="text;html=1;strokeColor=none;fillColor=none;align=center;verticalAlign=middle;whiteSpace=wrap;rounded=0;fontStyle=1;" vertex="1" parent="1">
          <mxGeometry x="227.5" y="270" width="105" height="20" as="geometry" />
        </mxCell>
        <mxCell id="mUP7ldSw4wLbzRb6OegH-42" value="" style="rounded=1;whiteSpace=wrap;html=1;strokeColor=#ae4132;fillColor=#FAEBED;" vertex="1" parent="1">
          <mxGeometry x="380" y="450" width="120" height="60" as="geometry" />
        </mxCell>
        <mxCell id="mUP7ldSw4wLbzRb6OegH-43" value="&lt;font face=&quot;Old Standard TT&quot; style=&quot;font-size: 15px&quot;&gt;B2B WO&lt;/font&gt;" style="text;html=1;strokeColor=none;fillColor=none;align=center;verticalAlign=middle;whiteSpace=wrap;rounded=0;fontStyle=1;" vertex="1" parent="1">
          <mxGeometry x="387.5" y="470" width="105" height="20" as="geometry" />
        </mxCell>
        <mxCell id="mUP7ldSw4wLbzRb6OegH-44" value="" style="endArrow=classic;html=1;exitX=0.5;exitY=1;exitDx=0;exitDy=0;" edge="1" parent="1" source="mUP7ldSw4wLbzRb6OegH-11" target="mUP7ldSw4wLbzRb6OegH-42">
          <mxGeometry width="50" height="50" relative="1" as="geometry">
            <mxPoint x="590" y="510" as="sourcePoint" />
            <mxPoint x="640" y="460" as="targetPoint" />
          </mxGeometry>
        </mxCell>
        <mxCell id="mUP7ldSw4wLbzRb6OegH-45" value="" style="endArrow=classic;html=1;exitX=0.5;exitY=1;exitDx=0;exitDy=0;entryX=0.5;entryY=0;entryDx=0;entryDy=0;" edge="1" parent="1" source="mUP7ldSw4wLbzRb6OegH-40" target="mUP7ldSw4wLbzRb6OegH-4">
          <mxGeometry width="50" height="50" relative="1" as="geometry">
            <mxPoint x="90" y="370" as="sourcePoint" />
            <mxPoint x="140" y="320" as="targetPoint" />
          </mxGeometry>
        </mxCell>
        <mxCell id="mUP7ldSw4wLbzRb6OegH-47" value="&lt;font face=&quot;Old Standard TT&quot; style=&quot;font-size: 15px&quot;&gt;Modules&lt;/font&gt;" style="text;html=1;strokeColor=none;fillColor=none;align=center;verticalAlign=middle;whiteSpace=wrap;rounded=0;fontStyle=1;" vertex="1" parent="1">
          <mxGeometry x="10" y="270" width="70" height="20" as="geometry" />
        </mxCell>
        <mxCell id="mUP7ldSw4wLbzRb6OegH-48" value="&lt;font face=&quot;Old Standard TT&quot; style=&quot;font-size: 15px&quot;&gt;Interfaces&lt;/font&gt;" style="text;html=1;strokeColor=none;fillColor=none;align=center;verticalAlign=middle;whiteSpace=wrap;rounded=0;fontStyle=1;" vertex="1" parent="1">
          <mxGeometry x="10" y="370" width="70" height="20" as="geometry" />
        </mxCell>
      </root>
    </mxGraphModel>
  </diagram>
</mxfile>
